<svg width="262" height="250" viewBox="0 0 262 250" fill="none" xmlns="http://www.w3.org/2000/svg">
<path d="M260.851 248.496C260.851 248.408 260.768 248.408 260.768 248.319L221.071 171.178L131.214 0L88.8604 80.6794L0 250H261.598L260.851 248.496ZM122.827 203.114C108.875 215.234 94.0094 223.726 79.8083 230.361C98.9091 209.749 123.989 174.628 120.917 134.82C129.47 141.808 140.599 147.735 154.135 153.574C166.925 159.059 178.551 164.72 189.431 171.975C171.243 174.805 150.315 179.229 122.827 203.114Z" fill="url(#paint0_linear_39_11)"/>
<path opacity="0.4" d="M121 134.731C121.249 137.65 121.498 143.666 121.083 146.674C119.671 145.612 118.425 144.639 117.096 143.577C95.089 125.619 86.286 102.53 83.3793 91.1182L88.8604 80.6794C88.8604 80.6794 91.4349 110.58 121 134.731Z" fill="black"/>
<path opacity="0.4" d="M96.0855 210.545C92.2654 216.295 83.6285 226.292 79.8913 230.361C43.0184 247.611 9.96566 249.912 0 250C11.1283 249.469 43.4337 239.473 80.1405 220.364C84.8742 217.887 91.4349 213.199 96.0855 210.545Z" fill="black"/>
<path opacity="0.4" d="M260.768 248.496L261.598 250C252.38 234.519 217.5 201.256 182.953 178.167C180.96 176.84 178.884 175.513 176.89 174.275C180.212 173.478 186.441 172.328 189.431 171.798C227.715 197.01 253.875 236.2 261.598 249.911C261.598 250 260.768 248.408 260.768 248.496Z" fill="black"/>
<defs>
<linearGradient id="paint0_linear_39_11" x1="0" y1="125" x2="261.598" y2="125" gradientUnits="userSpaceOnUse">
<stop stop-color="#192ABF"/>
<stop offset="0.8239" stop-color="#21A8F4"/>
</linearGradient>
</defs>
</svg>
