<svg width="124" height="110" viewBox="0 0 124 110" fill="none" xmlns="http://www.w3.org/2000/svg">
<path d="M24.069 2.41434C15.9356 5.21434 10.2023 10.1477 6.06898 17.881C2.20231 24.9477 1.80231 46.4143 5.40232 50.0143C7.13565 51.7477 8.06898 52.0143 9.53565 50.8143C11.0023 49.6143 11.269 46.8143 10.7356 39.3477C9.40232 18.5477 18.6023 8.01434 37.9356 7.88101C44.6023 7.88101 47.669 8.68101 53.9356 12.0143L61.8023 16.1477L69.269 12.0143C75.5357 8.54768 78.3356 7.88101 85.269 7.88101C105.402 8.01434 114.336 18.5477 112.736 40.1477C112.069 48.9477 112.202 50.8143 113.936 51.481C117.536 52.8143 120.069 48.5477 120.736 39.6143C122.069 23.3477 115.536 10.0143 103.269 3.48101C95.4023 -0.652325 77.8023 -0.652325 68.6023 3.61434L62.069 6.54768L53.669 3.21434C43.669 -0.78566 34.069 -1.05233 24.069 2.41434Z" fill="black"/>
<path d="M29.669 44.281C13.5357 54.8144 0.335702 64.4144 0.0690355 65.6144C-0.597631 69.081 3.66904 70.0144 8.3357 67.3477C12.3357 65.081 12.3357 65.081 15.0024 68.8144C20.869 76.9477 34.469 90.0144 46.869 99.3477C54.069 104.814 60.469 109.214 61.269 109.214C65.8024 109.214 95.9357 84.1477 104.469 73.3477L110.869 65.2144L114.869 68.1477C118.869 70.9477 122.202 70.5477 123.536 66.8144C123.802 66.0144 117.402 60.9477 109.269 55.6144L94.469 45.881V39.081C94.469 31.2143 91.9357 27.6143 88.469 30.5477C87.4024 31.481 86.469 33.881 86.469 36.0144C86.469 38.1477 86.2024 39.881 85.8024 39.881C85.4024 39.881 80.2024 36.5477 74.069 32.5477C68.069 28.5477 62.2024 25.2143 61.1357 25.2143C59.9357 25.2143 45.8024 33.7477 29.669 44.281ZM82.469 47.2144C94.2024 54.8144 103.802 61.481 103.802 62.0144C103.802 65.481 82.069 86.4144 67.5357 96.8144L61.669 101.081L49.0024 91.3477C35.1357 80.681 19.5357 64.4144 20.069 61.481C20.3357 60.1477 58.469 33.6143 60.7357 33.2143C60.869 33.2143 70.6024 39.481 82.469 47.2144Z" fill="black"/>
<path d="M47.8024 57.8809V63.8809H53.8024H59.8024V57.8809V51.8809H53.8024H47.8024V57.8809Z" fill="black"/>
<path d="M63.8024 57.8809V63.8809H69.8024H75.8024V57.8809V51.8809H69.8024H63.8024V57.8809Z" fill="black"/>
<path d="M47.8024 75.2144V81.2144H53.8024H59.8024V75.2144V69.2144H53.8024H47.8024V75.2144Z" fill="black"/>
<path d="M63.8024 75.2144V81.2144H69.8024H75.8024V75.2144V69.2144H69.8024H63.8024V75.2144Z" fill="black"/>
</svg>
